<?xml version="1.0" standalone="no"?>
<!DOCTYPE svg PUBLIC "-//W3C//DTD SVG 20010904//EN"
 "http://www.w3.org/TR/2001/REC-SVG-20010904/DTD/svg10.dtd">
<svg version="1.0" xmlns="http://www.w3.org/2000/svg"
 width="1350.000000pt" height="1350.000000pt" viewBox="0 0 1350.000000 1350.000000"
 preserveAspectRatio="xMidYMid meet">
<metadata>
Created by potrace 1.10, written by Peter Selinger 2001-2011
</metadata>
<g transform="translate(0.000000,1350.000000) scale(0.100000,-0.100000)"
fill="#ffffff" stroke="none">
<path d="M3206 8528 c-5 -16 -30 -153 -51 -278 -9 -52 -23 -125 -31 -161 -8
-37 -14 -79 -14 -93 0 -15 -6 -55 -14 -89 -8 -34 -21 -105 -30 -157 -9 -52
-21 -115 -26 -140 -6 -25 -14 -74 -20 -110 -5 -36 -16 -107 -25 -159 -9 -52
-14 -100 -11 -107 4 -10 27 -14 80 -14 l75 0 16 52 c8 28 15 61 15 72 0 20 15
108 45 261 16 80 34 181 66 375 20 124 33 161 50 142 4 -4 50 -117 104 -252
104 -262 116 -290 146 -359 20 -43 21 -44 38 -25 10 10 123 159 251 329 128
171 235 312 237 314 2 3 8 0 13 -5 7 -7 5 -38 -6 -89 -25 -128 -39 -207 -90
-507 -8 -51 -22 -122 -30 -159 -9 -36 -14 -83 -12 -105 l3 -39 60 -3 c97 -5
100 -3 114 80 6 40 18 111 26 158 8 47 37 216 65 375 28 160 57 328 65 375 7
47 23 134 35 194 12 60 19 115 16 122 -8 21 -139 19 -161 -2 -8 -9 -124 -161
-256 -337 -133 -177 -252 -333 -265 -346 l-23 -24 -22 49 c-29 64 -41 92 -79
189 -18 44 -36 89 -41 100 -5 11 -38 94 -75 185 -36 91 -70 173 -75 183 -8 14
-24 17 -85 17 -51 0 -76 -4 -78 -12z"/>
<path d="M4919 8131 c-185 -50 -343 -199 -408 -386 -16 -44 -21 -84 -21 -157
0 -90 3 -104 32 -164 100 -205 337 -279 552 -173 34 17 65 34 70 40 22 21 36
9 36 -31 l0 -40 73 0 c39 0 78 4 84 8 7 5 15 30 19 58 3 27 11 78 19 114 25
119 45 237 45 264 0 15 4 36 10 46 5 10 14 52 19 92 5 40 16 111 25 157 12 63
13 87 5 97 -17 20 -124 18 -159 -3 -27 -16 -29 -15 -76 24 -90 72 -193 90
-325 54z m183 -178 c118 -46 169 -141 147 -270 -15 -90 -46 -148 -108 -206
-74 -69 -128 -91 -226 -91 -92 -1 -143 20 -190 76 -41 49 -55 90 -55 165 0
139 99 272 241 322 68 24 136 26 191 4z"/>
<path d="M7570 8132 c-169 -48 -317 -175 -386 -330 -86 -195 -55 -378 85 -505
141 -127 360 -128 557 -2 117 75 199 185 248 332 27 80 19 220 -17 293 -49
102 -122 170 -219 205 -69 25 -192 28 -268 7z m183 -178 c57 -19 120 -81 143
-139 52 -138 -42 -333 -195 -404 -76 -35 -196 -37 -257 -4 -56 30 -101 89
-118 156 -25 96 13 214 95 296 96 95 223 132 332 95z"/>
<path d="M6607 8101 c-21 -10 -51 -31 -68 -46 l-29 -29 -16 22 c-13 19 -24 22
-90 22 -51 0 -76 -4 -78 -12 -7 -23 -35 -170 -51 -268 -9 -52 -21 -115 -26
-140 -5 -25 -13 -74 -18 -110 -5 -36 -19 -116 -31 -179 -11 -63 -18 -120 -16
-128 4 -10 24 -13 82 -11 l77 3 13 45 c8 25 18 74 24 110 6 36 17 101 24 145
8 44 21 125 30 180 25 148 30 159 91 199 46 31 62 36 112 36 120 0 175 -80
148 -213 -7 -34 -20 -107 -29 -162 -9 -55 -23 -129 -31 -165 -8 -36 -16 -90
-17 -120 l-3 -55 74 -3 c41 -2 78 1 82 5 5 5 19 69 33 143 85 469 88 497 61
586 -18 60 -64 118 -116 144 -51 26 -177 27 -232 1z"/>
<path d="M6055 8073 c-22 -9 -60 -32 -84 -50 -24 -18 -47 -33 -52 -33 -4 0 -9
17 -11 38 l-3 37 -71 3 c-55 2 -74 -1 -84 -13 -11 -14 -40 -160 -85 -435 -7
-47 -25 -152 -40 -234 -16 -90 -23 -152 -17 -158 5 -5 42 -8 83 -6 85 3 78 -8
104 153 9 55 22 128 30 162 8 34 15 75 15 92 0 70 70 187 140 236 23 16 62 34
88 40 56 14 69 35 74 120 3 58 2 60 -22 62 -14 1 -43 -5 -65 -14z"/>
<path d="M6290 7021 c-20 -6 -28 -18 -42 -66 -9 -33 -17 -76 -17 -95 -1 -19
-7 -64 -15 -100 -8 -36 -21 -105 -30 -155 -8 -49 -22 -128 -31 -175 -35 -196
-85 -496 -85 -512 0 -15 10 -18 64 -18 73 0 83 7 91 70 3 25 12 79 20 120 7
41 22 122 32 179 16 92 21 104 42 113 13 5 98 8 189 7 193 -1 194 -1 196 88
l1 58 -189 3 -189 2 7 43 c10 69 25 158 39 227 l13 65 189 3 c110 1 194 7 201
13 7 5 15 33 19 61 11 78 12 78 -254 77 -124 -1 -237 -4 -251 -8z"/>
<path d="M10463 6897 c-63 -35 -84 -123 -40 -165 46 -43 132 -20 166 45 43 84
-43 167 -126 120z"/>
<path d="M9763 6878 c-6 -7 -16 -42 -21 -78 -12 -72 -32 -189 -57 -325 -59
-334 -85 -484 -92 -533 l-6 -43 74 3 73 3 13 75 c6 41 17 111 24 155 6 44 13
82 15 84 7 8 44 -32 44 -48 0 -9 7 -29 15 -45 8 -15 15 -34 15 -41 0 -8 6 -26
14 -42 14 -27 38 -88 50 -125 5 -15 18 -18 91 -18 47 0 85 4 85 8 0 7 -84 227
-109 287 -5 11 -16 40 -26 65 -9 25 -23 60 -31 78 l-14 32 110 117 c60 63 107
120 104 124 -3 5 -42 9 -87 9 l-82 0 -53 -55 c-62 -64 -77 -69 -68 -22 4 17
11 61 15 97 5 36 13 76 19 90 5 14 11 54 13 90 l4 65 -61 3 c-41 2 -64 -1 -71
-10z"/>
<path d="M7190 6662 c-150 -56 -261 -164 -316 -307 -27 -70 -27 -235 0 -285
49 -92 115 -149 205 -176 93 -28 220 -10 296 42 48 32 67 31 63 -3 -3 -28 -3
-28 67 -31 l70 -3 18 73 c9 40 17 87 17 103 0 17 7 52 15 79 8 27 15 66 15 87
0 21 5 50 11 66 6 15 15 57 20 93 4 36 14 92 20 126 17 87 13 94 -65 94 -51 0
-67 -4 -74 -17 -9 -15 -13 -14 -43 12 -59 49 -106 65 -194 64 -49 0 -97 -7
-125 -17z m223 -164 c79 -53 103 -116 83 -220 -15 -77 -33 -112 -83 -160 -107
-103 -262 -116 -346 -30 -39 40 -67 97 -67 136 0 50 22 126 48 165 33 48 104
105 158 126 59 22 161 14 207 -17z"/>
<path d="M8995 6661 c-76 -26 -105 -41 -167 -88 -87 -66 -149 -160 -174 -263
-37 -154 3 -287 112 -370 46 -35 150 -70 208 -70 47 0 132 25 157 46 8 8 21
14 27 14 24 0 11 -31 -28 -70 -58 -58 -108 -80 -181 -80 -69 0 -110 19 -164
78 l-32 36 -57 -18 c-76 -24 -90 -39 -72 -74 64 -120 231 -183 394 -148 223
48 355 208 392 476 4 36 13 81 19 100 6 19 11 51 11 70 0 19 7 57 15 84 8 27
15 65 15 85 0 20 6 56 14 81 7 25 11 51 9 58 -7 19 -132 16 -139 -3 -9 -21
-21 -19 -63 13 -79 61 -193 78 -296 43z m150 -142 c94 -26 145 -94 145 -194 0
-104 -38 -180 -120 -240 -137 -99 -308 -68 -365 67 -56 137 52 320 215 364 58
16 76 16 125 3z"/>
<path d="M8185 6653 c-11 -3 -41 -20 -67 -39 -46 -32 -48 -33 -58 -14 -9 17
-21 20 -70 20 -65 0 -70 -4 -81 -65 -56 -335 -70 -417 -79 -455 -9 -39 -29
-171 -30 -192 0 -5 31 -8 69 -8 58 0 70 3 74 18 5 18 16 79 42 232 18 108 43
233 53 270 11 37 82 82 139 87 58 5 89 -10 121 -57 30 -44 32 -34 -55 -518
l-6 -33 74 3 73 3 13 70 c7 39 17 98 22 132 5 34 14 84 19 110 49 219 40 315
-34 389 -24 24 -54 43 -73 47 -37 8 -115 7 -146 0z"/>
<path d="M10390 6600 c-6 -11 -15 -53 -20 -93 -5 -40 -13 -88 -19 -107 -6 -19
-11 -48 -11 -65 0 -16 -6 -59 -14 -95 -15 -67 -42 -222 -49 -275 -2 -16 -6
-37 -8 -45 -3 -12 10 -16 69 -18 82 -3 77 -8 92 88 5 36 16 101 23 145 56 318
78 458 73 470 -4 11 -22 15 -65 15 -50 0 -62 -3 -71 -20z"/>
</g>
</svg>
